# xmcd CD database file
#
# Track frame offsets:
#	150
#	2850
#	16827
#	48675
#
# Disc length: 782 seconds
#
# Revision: 0
# Processed by: cddbd v1.5.1PL0 Copyright (c) Steve Scherf et al.
# Submitted via: CDex 1.50beta8
#
DISCID=28030c04
DTITLE=Cornelius - nova musicha n.8 -five point one
DYEAR=2003
DGENRE=Techno
TTITLE0=the Star-Spangled-Gayo
TTITLE1=スギモトトモユキ/Point Card
TTITLE2=TAKASHI TSUZUKI/Search
TTITLE3=data track
EXTD=YEAR: 2003
EXTT0=
EXTT1=
EXTT2=
EXTT3=
PLAYORDER=
